<svg width="20" height="20" viewBox="0 0 20 20" fill="none" xmlns="http://www.w3.org/2000/svg">
<g clip-path="url(#clip0_1244_3941)">
<path d="M15.8333 10.8335H4.16667C3.24619 10.8335 2.5 11.5797 2.5 12.5002V15.8335C2.5 16.754 3.24619 17.5002 4.16667 17.5002H15.8333C16.7538 17.5002 17.5 16.754 17.5 15.8335V12.5002C17.5 11.5797 16.7538 10.8335 15.8333 10.8335Z" stroke="black" stroke-width="1.25" stroke-linecap="round" stroke-linejoin="round"/>
<path d="M14.1667 14.1665V14.1748" stroke="black" stroke-width="1.25" stroke-linecap="round" stroke-linejoin="round"/>
<path d="M10.8333 14.1665V14.1748" stroke="black" stroke-width="1.25" stroke-linecap="round" stroke-linejoin="round"/>
<path d="M12.5 10.8332V9.1665" stroke="black" stroke-width="1.25" stroke-linecap="round" stroke-linejoin="round"/>
<path d="M9.79175 7.2915C10.1004 6.86137 10.507 6.51093 10.978 6.26919C11.4489 6.02745 11.9707 5.90137 12.5001 5.90137C13.0295 5.90137 13.5512 6.02745 14.0222 6.26919C14.4932 6.51093 14.8998 6.86137 15.2084 7.2915" stroke="black" stroke-width="1.25" stroke-linecap="round" stroke-linejoin="round"/>
<path d="M7.08325 5.41649C7.70048 4.55624 8.51372 3.85536 9.45566 3.37188C10.3976 2.88841 11.4411 2.63623 12.4999 2.63623C13.5587 2.63623 14.6022 2.88841 15.5442 3.37188C16.4861 3.85536 17.2994 4.55624 17.9166 5.41649" stroke="black" stroke-width="1.25" stroke-linecap="round" stroke-linejoin="round"/>
</g>
<defs>
<clipPath id="clip0_1244_3941">
<rect width="20" height="20" fill="white"/>
</clipPath>
</defs>
</svg>
