<svg width="28" height="28" viewBox="0 0 28 28" fill="none" xmlns="http://www.w3.org/2000/svg">
<g clip-path="url(#clip0_1244_3956)">
<path d="M20.9999 9.3335H11.6666C10.3779 9.3335 9.33325 10.3782 9.33325 11.6668V21.0002C9.33325 22.2888 10.3779 23.3335 11.6666 23.3335H20.9999C22.2886 23.3335 23.3333 22.2888 23.3333 21.0002V11.6668C23.3333 10.3782 22.2886 9.3335 20.9999 9.3335Z" stroke="white" stroke-width="1.75" stroke-linecap="round" stroke-linejoin="round"/>
<path d="M18.6667 9.33317V6.99984C18.6667 6.381 18.4209 5.78751 17.9833 5.34992C17.5457 4.91234 16.9523 4.6665 16.3334 4.6665H7.00008C6.38124 4.6665 5.78775 4.91234 5.35017 5.34992C4.91258 5.78751 4.66675 6.381 4.66675 6.99984V16.3332C4.66675 16.952 4.91258 17.5455 5.35017 17.9831C5.78775 18.4207 6.38124 18.6665 7.00008 18.6665H9.33341" stroke="white" stroke-width="1.75" stroke-linecap="round" stroke-linejoin="round"/>
</g>
<defs>
<clipPath id="clip0_1244_3956">
<rect width="28" height="28" fill="white"/>
</clipPath>
</defs>
</svg>
