<svg width="19" height="19" viewBox="0 0 19 19" fill="none" xmlns="http://www.w3.org/2000/svg">
<path d="M13.2257 8.95006C12.9532 8.81775 12.6742 8.69824 12.3909 8.59581C13.4597 7.73578 14.1422 6.42333 14.1422 4.95509C14.1422 4.6862 14.1186 4.42371 14.0756 4.16762H15.754V2.60762H13.509C12.6935 1.21194 11.1718 0.272949 9.43551 0.272949C6.83858 0.272949 4.7267 2.37287 4.7267 4.95509C4.7267 6.42546 5.41135 7.74005 6.48016 8.59794C3.1707 9.80156 0.80127 12.9621 0.80127 16.6647H2.37016C2.37016 12.7914 5.54012 9.6415 9.43336 9.6415C10.5215 9.6415 11.5646 9.88052 12.5346 10.3521L13.2257 8.95006ZM11.5023 2.60762H7.36655C7.92028 2.12532 8.64355 1.83295 9.43336 1.83295C10.2253 1.83295 10.9486 2.12532 11.5023 2.60762ZM6.39646 4.16762H12.4746C12.5411 4.41944 12.5754 4.68193 12.5754 4.95509C12.5754 6.67728 11.1675 8.07723 9.43551 8.07723C7.70351 8.07723 6.29559 6.67728 6.29559 4.95509C6.29559 4.68193 6.32993 4.41944 6.39646 4.16762ZM14.1808 10.4204C12.0131 10.4204 10.2554 12.1682 10.2554 14.3236C10.2554 16.479 12.0131 18.2269 14.1808 18.2269C16.3485 18.2269 18.1062 16.479 18.1062 14.3236C18.1041 12.1682 16.3485 10.4204 14.1808 10.4204ZM14.1808 16.6647C12.8823 16.6647 11.8264 15.6148 11.8264 14.3236C11.8264 13.0325 12.8823 11.9826 14.1808 11.9826C15.4793 11.9826 16.5352 13.0325 16.5352 14.3236C16.5352 15.6148 15.4793 16.6647 14.1808 16.6647Z" fill="#0038FF"/>
<path d="M14.7689 12.7039H13.5906V14.5669L15.0801 16.0352L15.9085 15.2029L14.7689 14.0782V12.7039Z" fill="#0038FF"/>
</svg>
