<svg width="29" height="28" viewBox="0 0 29 28" fill="none" xmlns="http://www.w3.org/2000/svg">
<path d="M23.1235 7.96971L22.325 10.7951L22.325 10.7951L22.3247 10.796C22.2604 11.0533 22.3226 11.3185 22.5234 11.4539C23.3945 12.2631 24.0775 13.1333 24.5121 14.1265L24.5123 14.1271C24.8927 14.9512 25.6541 15.3949 26.5401 15.3949C26.72 15.3949 26.8674 15.4547 26.9698 15.5571C27.0722 15.6595 27.132 15.8069 27.132 15.9868V18.4846C27.132 18.6646 27.0721 18.812 26.9698 18.9143C26.8674 19.0167 26.72 19.0765 26.5401 19.0765H25.4785C25.381 19.0765 25.2983 19.0928 25.2233 19.1262C25.1484 19.1595 25.0828 19.209 25.0184 19.2734L25.0183 19.2733L25.0164 19.2756C24.7053 19.6489 24.457 19.8971 24.1469 20.1452L24.1467 20.1451L24.1442 20.1476C24.0711 20.2207 23.9943 20.294 23.9131 20.3716C23.6493 20.6235 23.3387 20.92 22.9558 21.3986C22.0139 22.4665 21.512 23.8478 21.512 25.3535V25.978C21.512 26.1579 21.4521 26.3054 21.3497 26.4077C21.2474 26.5101 21.0999 26.5699 20.92 26.5699H19.6711C19.4911 26.5699 19.3437 26.5101 19.2413 26.4077C19.139 26.3053 19.0792 26.1579 19.0792 25.978V24.7915C19.0792 24.5968 19.0141 24.432 18.8979 24.3158C18.7817 24.1997 18.6169 24.1346 18.4222 24.1346C18.2275 24.1346 18.0627 24.1997 17.9465 24.3159C17.8304 24.4321 17.7653 24.5968 17.7653 24.7915V25.978C17.7653 27.0575 18.5916 27.8838 19.6712 27.8838H20.92C21.9995 27.8838 22.8258 27.0575 22.8258 25.978V25.3535C22.8258 24.1736 23.1984 23.058 23.9412 22.2533L23.9416 22.2529C24.4396 21.6925 24.7511 21.3809 25.0626 21.0694C25.1891 20.9743 25.2994 20.8639 25.4085 20.747C25.4432 20.7098 25.4777 20.672 25.5126 20.6338C25.5856 20.554 25.6602 20.4724 25.7417 20.3904H26.6649C27.7444 20.3904 28.5707 19.5641 28.5707 18.4846V15.9868C28.5708 14.9074 27.7444 14.0811 26.6649 14.0811C26.303 14.0811 26.0018 13.9012 25.8197 13.537C25.3215 12.5405 24.699 11.6053 23.8289 10.732L24.7602 7.44146C24.827 7.24034 24.7583 7.04233 24.6313 6.85188L24.6319 6.85152L24.6273 6.84692C24.5004 6.72007 24.3054 6.58788 24.1054 6.5876C22.4185 6.52525 21.0403 7.08523 19.974 8.2679C19.4907 8.08728 18.9503 7.9067 18.4093 7.72635C18.8359 7.04187 19.0792 6.23684 19.0792 5.37118C19.0792 2.91787 17.1288 0.967512 14.6755 0.967512C12.2222 0.967512 10.2718 2.91787 10.2718 5.37118C10.2718 7.82448 12.2222 9.77484 14.6755 9.77484C15.7392 9.77484 16.6787 9.40134 17.4314 8.77853C18.2377 8.96644 19.2256 9.3374 19.8439 9.64653C20.1076 9.77836 20.4367 9.71208 20.6335 9.44995C21.3053 8.59511 22.0953 8.10276 23.1235 7.96971ZM11.0237 26.0406V25.5845C12.7035 26.0752 14.5653 26.1966 16.3648 26.0105L16.3649 26.0106L16.3679 26.01C16.6955 25.9444 16.956 25.6187 16.956 25.2912C16.956 25.0648 16.8749 24.8836 16.7419 24.7672C16.6092 24.6511 16.4278 24.6023 16.2323 24.6345C14.3633 24.8213 12.3704 24.6342 10.6275 24.0117L10.6268 24.0115C10.4324 23.9467 10.2341 23.946 10.0365 24.0778L10.0361 24.0772L10.0315 24.0818C9.90456 24.2088 9.77222 24.404 9.77222 24.6044V25.9781C9.77222 26.1581 9.71237 26.3055 9.61001 26.4079C9.50764 26.5102 9.36021 26.5701 9.18028 26.5701H7.93136C7.75141 26.5701 7.60398 26.5102 7.50162 26.4079C7.39926 26.3055 7.33942 26.1581 7.33942 25.9781V24.5419C7.33942 23.2234 6.89994 21.9046 6.02069 20.837L6.0208 20.8369L6.01858 20.8346C5.92596 20.742 5.83312 20.6337 5.73926 20.5242L5.73877 20.5237C5.64567 20.4151 5.55156 20.3053 5.45724 20.2109C4.96016 19.6516 4.65023 19.2176 4.40242 18.7227C4.27905 18.2899 4.21716 17.8564 4.21716 17.2358C4.21716 13.9422 6.45443 10.9551 10.0668 9.46028C10.392 9.33007 10.5937 8.93685 10.3959 8.60394C10.2648 8.27997 9.87256 8.07962 9.54039 8.27707C5.74024 9.83534 3.30168 12.9451 2.90874 16.4354C2.56305 16.2425 2.2814 15.8303 2.2814 15.3625C2.2814 15.1678 2.21635 15.003 2.10016 14.8868C1.98396 14.7706 1.81918 14.7056 1.62448 14.7056C1.42979 14.7056 1.26499 14.7706 1.14879 14.8868C1.03258 15.003 0.967512 15.1678 0.967512 15.3625C0.967512 16.5573 1.77995 17.5012 2.84374 17.8229C2.90506 18.3132 2.96865 18.8094 3.15567 19.1845C3.38799 19.8222 3.78064 20.3001 4.27898 20.9067C4.32166 20.9586 4.36513 21.0115 4.40933 21.0656L4.40921 21.0657L4.4115 21.068C4.59688 21.2533 4.78277 21.501 4.9705 21.7514L4.97075 21.7517C5.59104 22.5581 5.96312 23.6128 5.96312 24.6044V26.0406C5.96312 27.1201 6.78944 27.9464 7.86895 27.9464H9.11787C10.1974 27.9464 11.0237 27.1201 11.0237 26.0406ZM21.0449 16.0194C21.7526 16.0194 22.3263 15.4457 22.3263 14.738C22.3263 14.0303 21.7526 13.4566 21.0449 13.4566C20.3372 13.4566 19.7635 14.0303 19.7635 14.738C19.7635 15.4457 20.3372 16.0194 21.0449 16.0194ZM18.5471 10.9588H11.0537C10.8589 10.9588 10.6941 11.0239 10.578 11.1401C10.4618 11.2563 10.3967 11.4211 10.3967 11.6158C10.3967 11.8105 10.4618 11.9752 10.578 12.0914C10.6942 12.2076 10.859 12.2727 11.0537 12.2727H18.547C18.7418 12.2727 18.9065 12.2076 19.0227 12.0914C19.1389 11.9752 19.204 11.8105 19.204 11.6158C19.204 11.4211 19.1389 11.2563 19.0228 11.1401C18.9066 11.0239 18.7418 10.9588 18.5471 10.9588ZM14.8004 8.46106C13.0698 8.46106 11.7106 7.10181 11.7106 5.37128C11.7106 3.64076 13.0698 2.28151 14.8004 2.28151C16.5309 2.28151 17.8901 3.64076 17.8901 5.37128C17.8901 7.10181 16.5308 8.46106 14.8004 8.46106ZM14.8072 7.20512C15.812 7.20512 16.6265 6.39059 16.6265 5.38582C16.6265 4.38105 15.812 3.56652 14.8072 3.56652C13.8024 3.56652 12.9879 4.38105 12.9879 5.38582C12.9879 6.39059 13.8024 7.20512 14.8072 7.20512Z" fill="#0038FF" stroke="#0038FF" stroke-width="0.0649751"/>
</svg>
