<svg width="19" height="20" viewBox="0 0 19 20" fill="none" xmlns="http://www.w3.org/2000/svg">
<path d="M17.2083 4.82647L14.9439 4.50322C14.9439 4.50322 14.9438 4.50321 14.9438 4.50321L14.9436 4.50318L14.9589 4.39611C14.8608 4.38235 14.7752 4.3213 14.7315 4.23273L17.2083 4.82647ZM17.2083 4.82647L15.4499 6.40118L15.4499 6.40117L15.4483 6.40268C15.3492 6.49517 15.3058 6.6303 15.3288 6.76133L15.3287 6.76133L15.3292 6.76382L15.7711 8.98154L13.8086 7.93572L13.8086 7.93572L13.8074 7.9351C13.6882 7.87345 13.5466 7.87361 13.4271 7.93496L13.4271 7.93495L13.4254 7.93587L11.4795 8.9798L17.2083 4.82647ZM13.6207 0.937765L13.6206 0.937765C13.4642 0.936151 13.3192 1.02249 13.2488 1.1625L13.2488 1.1626L11.9593 3.73326L9.07088 4.1442L9.07057 4.14425C8.73719 4.19268 8.59806 4.60035 8.84512 4.83586L8.84508 4.8359L8.8476 4.83816L11.0788 6.836L10.5205 9.65413L10.5205 9.65412L10.52 9.65677C10.4623 9.99159 10.8176 10.2385 11.1151 10.0842L11.1161 10.0836L13.6167 8.75093L16.1309 10.0843L16.1309 10.0843L16.1322 10.085C16.4295 10.2377 16.7824 9.99153 16.7263 9.6584L16.7264 9.65839L16.7258 9.65556L16.1738 6.83697L18.3847 4.83841L18.3847 4.83844L18.3868 4.83646C18.6334 4.60135 18.4959 4.19253 18.161 4.14481L18.1458 4.25188L18.161 4.1448L15.2749 3.73386L13.9837 1.16314L13.9837 1.16309C13.9151 1.0267 13.7745 0.939384 13.6207 0.937765ZM14.6345 4.28057C14.6346 4.2807 14.6346 4.28083 14.6347 4.28096L12.2897 4.50203L12.2748 4.39491L12.29 4.50199L12.2899 4.50201C12.4235 4.48333 12.5392 4.40061 12.599 4.28043C12.599 4.28036 12.599 4.2803 12.5991 4.28024L13.6166 2.25347L14.6345 4.28057ZM10.0282 4.82447L9.92203 4.73037L9.78154 4.7504L9.88776 4.84451L10.0282 4.82447ZM13.556 2.13295L13.6165 2.01243L13.6771 2.13295L13.556 2.13295ZM11.4517 9.11744L11.328 9.18381L11.3558 9.04618L11.4517 9.11744ZM10.325 11.7101C9.77328 11.7101 9.31909 12.1643 9.31909 12.7159V18.1021C9.31909 18.6538 9.77328 19.108 10.325 19.108H15.7112C16.2629 19.108 16.717 18.6538 16.717 18.1021V12.7159C16.717 12.1643 16.2629 11.7101 15.7112 11.7101H10.325ZM10.325 12.5249H15.7112C15.8226 12.5249 15.9023 12.6045 15.9023 12.7159V18.1021C15.9023 18.2135 15.8226 18.2932 15.7112 18.2932H10.325C10.2135 18.2932 10.1339 18.2135 10.1339 18.1021V12.7159C10.1339 12.6045 10.2135 12.5249 10.325 12.5249ZM1.3479 2.73315C0.796226 2.73315 0.342039 3.18733 0.342039 3.739V9.12516C0.342039 9.67683 0.796226 10.131 1.3479 10.131H6.73413C7.28581 10.131 7.73999 9.67683 7.73999 9.12516V3.739C7.73999 3.18733 7.28581 2.73315 6.73413 2.73315H1.3479ZM1.3479 3.54792H6.73413C6.84556 3.54792 6.92521 3.62757 6.92521 3.739V9.12516C6.92521 9.23659 6.84556 9.31624 6.73413 9.31624H1.3479C1.23647 9.31624 1.15682 9.23659 1.15682 9.12516V3.739C1.15682 3.62757 1.23647 3.54792 1.3479 3.54792ZM1.3479 11.7101C0.796227 11.7101 0.342039 12.1643 0.342039 12.7159V18.1021C0.342039 18.6538 0.796226 19.108 1.3479 19.108H6.73413C7.28581 19.108 7.73999 18.6538 7.73999 18.1021V12.7159C7.73999 12.1643 7.28581 11.7101 6.73413 11.7101H1.3479ZM1.3479 12.5249H6.73413C6.84556 12.5249 6.92521 12.6045 6.92521 12.7159V18.1021C6.92521 18.2135 6.84556 18.2932 6.73413 18.2932H1.3479C1.23647 18.2932 1.15682 18.2135 1.15682 18.1021V12.7159C1.15682 12.6045 1.23647 12.5249 1.3479 12.5249Z" fill="#0038FF" stroke="#0038FF" stroke-width="0.216312"/>
</svg>
