<svg width="24" height="20" viewBox="0 0 24 20" fill="none" xmlns="http://www.w3.org/2000/svg">
<path d="M3.14149 1.69482L9.43606 7.89402M9.43606 7.89402C8.85476 8.46654 8.49521 9.25743 8.49521 10.131C8.49521 11.8782 9.93333 13.2946 11.7074 13.2946C12.5945 13.2946 13.3975 12.9405 13.9788 12.368M9.43606 7.89402L13.9788 12.368M20.2734 18.5672L13.9788 12.368M6.10554 4.61396C3.92145 6.0173 2.03196 8.04937 1 10.1308C2.87001 13.9024 7.55511 17.5126 11.7072 17.5126C13.568 17.5126 15.5357 16.7876 17.3093 15.6479M9.31046 3.11544C10.1135 2.87922 10.9203 2.74935 11.708 2.74935C15.86 2.74935 20.5444 6.36001 22.4149 10.1312C21.8238 11.3228 20.9518 12.4983 19.9044 13.5489" stroke="#0038FF" stroke-width="1.7305" stroke-linecap="round" stroke-linejoin="round"/>
</svg>
