<svg width="34" height="34" viewBox="0 0 34 34" fill="none" xmlns="http://www.w3.org/2000/svg">
<path d="M16.9999 19.2039C18.8255 19.2039 20.3054 17.7239 20.3054 15.8983C20.3054 14.0727 18.8255 12.5928 16.9999 12.5928C15.1743 12.5928 13.6943 14.0727 13.6943 15.8983C13.6943 17.7239 15.1743 19.2039 16.9999 19.2039Z" stroke="white" stroke-width="1.75" stroke-linecap="round" stroke-linejoin="round"/>
<path d="M23.2335 22.1317L18.5584 26.8068C18.1452 27.2196 17.585 27.4515 17.0009 27.4515C16.4168 27.4515 15.8567 27.2196 15.4434 26.8068L10.7672 22.1317C9.53446 20.8989 8.69498 19.3282 8.35489 17.6183C8.01481 15.9084 8.1894 14.1361 8.85658 12.5254C9.52377 10.9147 10.6536 9.53808 12.1032 8.56952C13.5527 7.60095 15.257 7.08398 17.0004 7.08398C18.7438 7.08398 20.448 7.60095 21.8976 8.56952C23.3471 9.53808 24.477 10.9147 25.1442 12.5254C25.8113 14.1361 25.9859 15.9084 25.6458 17.6183C25.3058 19.3282 24.4663 20.8989 23.2335 22.1317Z" stroke="white" stroke-width="1.75" stroke-linecap="round" stroke-linejoin="round"/>
</svg>
