<svg width="16" height="16" viewBox="0 0 16 16" fill="none" xmlns="http://www.w3.org/2000/svg">
<g clip-path="url(#clip0_1244_3938)">
<path d="M8.17655 11.1288C8.07127 11.0519 7.92842 11.0519 7.82307 11.1286L4.66567 13.4281C4.42755 13.6015 4.10821 13.3637 4.20611 13.0859L5.42418 9.62927C5.46893 9.50229 5.42361 9.36106 5.31333 9.28383L2.11717 7.04555C1.87694 6.87732 1.99598 6.49982 2.28926 6.49982H6.27441C6.40796 6.49982 6.52544 6.41153 6.56258 6.28324L7.70795 2.3268C7.79148 2.03828 8.20014 2.03794 8.28415 2.32632L9.43693 6.28372C9.47423 6.41177 9.59159 6.49982 9.72496 6.49982H13.7029C13.996 6.49982 14.1152 6.87698 13.8753 7.04537L10.6857 9.28402C10.5758 9.36118 10.5305 9.50201 10.575 9.62877L11.7864 13.0865C11.8838 13.3644 11.5642 13.6016 11.3264 13.428L8.17655 11.1288Z" fill="#191919"/>
</g>
<defs>
<clipPath id="clip0_1244_3938">
<rect width="16" height="16" fill="white"/>
</clipPath>
</defs>
</svg>
