<svg width="25" height="25" viewBox="0 0 25 25" fill="none" xmlns="http://www.w3.org/2000/svg">
<g clip-path="url(#clip0_1244_3974)">
<path d="M20.7192 11.3954C20.4659 9.57238 19.6201 7.88318 18.3123 6.58805C17.0045 5.29293 15.3071 4.46373 13.4816 4.22819C11.6562 3.99264 9.80391 4.36382 8.21016 5.28455C6.61642 6.20528 5.3696 7.62447 4.66178 9.32352M4.1438 5.17966V9.32352H8.28765" stroke="white" stroke-width="1.35126" stroke-linecap="round" stroke-linejoin="round"/>
<path d="M4.1438 13.4678C4.39715 15.2908 5.24288 16.98 6.55072 18.2752C7.85855 19.5703 9.55593 20.3995 11.3814 20.635C13.2068 20.8706 15.0591 20.4994 16.6529 19.5787C18.2466 18.6579 19.4934 17.2387 20.2012 15.5397M20.7192 19.6836V15.5397H16.5754" stroke="white" stroke-width="1.35126" stroke-linecap="round" stroke-linejoin="round"/>
</g>
<defs>
<clipPath id="clip0_1244_3974">
<rect width="24.8631" height="24.8631" fill="white"/>
</clipPath>
</defs>
</svg>
