<svg width="20" height="20" viewBox="0 0 20 20" fill="none" xmlns="http://www.w3.org/2000/svg">
<g clip-path="url(#clip0_1244_3926)">
<path d="M4.5 12C5.88071 12 7 10.8807 7 9.5C7 8.11929 5.88071 7 4.5 7C3.11929 7 2 8.11929 2 9.5C2 10.8807 3.11929 12 4.5 12Z" stroke="black" stroke-width="1.25" stroke-linecap="round" stroke-linejoin="round"/>
<path d="M14.5 7C15.8807 7 17 5.88071 17 4.5C17 3.11929 15.8807 2 14.5 2C13.1193 2 12 3.11929 12 4.5C12 5.88071 13.1193 7 14.5 7Z" stroke="black" stroke-width="1.25" stroke-linecap="round" stroke-linejoin="round"/>
<path d="M14.5 17C15.8807 17 17 15.8807 17 14.5C17 13.1193 15.8807 12 14.5 12C13.1193 12 12 13.1193 12 14.5C12 15.8807 13.1193 17 14.5 17Z" stroke="black" stroke-width="1.25" stroke-linecap="round" stroke-linejoin="round"/>
<path d="M7 9L12 6" stroke="black" stroke-width="1.25" stroke-linecap="round" stroke-linejoin="round"/>
<path d="M7 11L12 14" stroke="black" stroke-width="1.25" stroke-linecap="round" stroke-linejoin="round"/>
</g>
<defs>
<clipPath id="clip0_1244_3926">
<rect width="20" height="20" fill="white"/>
</clipPath>
</defs>
</svg>
