<svg width="31" height="27" viewBox="0 0 31 27" fill="none" xmlns="http://www.w3.org/2000/svg">
<g clip-path="url(#clip0_1244_3960)">
<path d="M26.4611 26.7185C29.2648 23.8869 31 19.9725 31 15.6522C31 7.00787 24.0594 0.00195312 15.5 0.00195312C6.94061 0.00195312 0 7.00787 0 15.6522C0 19.9761 1.73515 23.8869 4.53891 26.722L6.74664 24.4924C4.50364 22.2307 3.11411 19.107 3.11411 15.6557C3.12116 8.75311 8.66519 3.1612 15.5035 3.1612C22.3419 3.1612 27.8859 8.75311 27.8859 15.6522C27.8859 19.0999 26.4999 22.2236 24.2604 24.4853L26.4611 26.7185Z" fill="#191919"/>
<path d="M15.1403 18.7971L12.3894 16.019L21.1992 8.22949L22.8532 9.89994L15.1403 18.7971Z" fill="#191919"/>
</g>
<defs>
<clipPath id="clip0_1244_3960">
<rect width="31" height="26.7241" fill="white"/>
</clipPath>
</defs>
</svg>
